<svg fill="#000000" xmlns="http://www.w3.org/2000/svg" xmlns:xlink="http://www.w3.org/1999/xlink" version="1.1" x="0px" y="0px" viewBox="0 0 100 100" enable-background="new 0 0 100 100" xml:space="preserve"><g><polygon fill="none" points="66.7,68.9 74.8,60.6 66.7,68.9 54.2,57.7 47.6,65 54.2,57.8  "/><polygon fill="none" points="91.8,42.7 80.6,54.5 91.9,42.7  "/><polygon fill="none" points="99,49.5 80.6,68.7 74.8,74.8 67.2,82.5 57.7,73.9 67.2,82.5 67.2,82.5 74.8,74.8 80.6,68.7 99,49.5    95.4,46.1  "/><path d="M74.8,88.4c0,0.9-0.9,1.9-1.8,1.9H9c-0.9,0-2-1-2-1.9V11.7C7,10.8,8,9.9,9,9.9h64c0.9,0,1.8,0.9,1.8,1.8V55l5.8-6.1V11.7   c0-4.1-3.5-7.6-7.6-7.6H9c-4.1,0-7.8,3.5-7.8,7.6v76.7c0,4.1,3.7,7.7,7.8,7.7h64c4.1,0,7.6-3.6,7.6-7.7V74.3l-5.8,6.1V88.4z"/><circle cx="20.2" cy="23.2" r="3"/><rect x="27.3" y="21.6" width="34.9" height="2.9"/><circle cx="20.2" cy="39.7" r="3"/><rect x="27.3" y="38" width="34.9" height="2.9"/><circle cx="20.2" cy="56.2" r="3"/><path d="M62.2,54.5h-5.6c0.1,0,0.2,0.1,0.3,0.2l3.1,2.7h2.3V54.5z"/><path d="M27.3,57.4h21.8l2.2-2.4c0.2-0.2,0.4-0.5,0.5-0.5H27.3V57.4z"/><circle cx="20.2" cy="72.6" r="3"/><polygon points="27.3,73.9 51.8,73.9 48.6,71 27.3,71  "/><polygon points="74.8,74.8 80.6,68.7 99,49.5 95.4,46.1 91.9,42.7 80.6,54.5 74.8,60.6 66.7,68.9 54.2,57.8 47.6,65 54.4,71    57.7,73.9 67.2,82.5  "/><line fill="#000000" stroke="#000000" stroke-width="0" stroke-linecap="round" stroke-linejoin="round" x1="57.7" y1="74.1" x2="67.2" y2="82.6"/><line fill="#000000" stroke="#000000" stroke-width="0" stroke-linecap="round" stroke-linejoin="round" x1="54.4" y1="71.2" x2="47.6" y2="65.1"/><line fill="#000000" stroke="#000000" stroke-width="0" stroke-linecap="round" stroke-linejoin="round" x1="54.4" y1="71.2" x2="57.7" y2="74.1"/></g></svg>