<svg xmlns="http://www.w3.org/2000/svg" xmlns:xlink="http://www.w3.org/1999/xlink" version="1.1" x="0px" y="0px" viewBox="0 0 100 100" enable-background="new 0 0 100 100" xml:space="preserve"><path d="M85.806,31.277c-0.012-0.021-0.026-0.038-0.039-0.058c-0.504-0.674-1.044-1.328-1.639-1.948  c-3.261-3.402-7.549-5.551-12.31-6.277c-0.018-0.005-0.03-0.019-0.048-0.023c-0.061-0.016-0.121-0.006-0.182-0.01  c-1.098-0.156-2.212-0.262-3.353-0.262c-3.775,0-7.563,0.92-11.073,2.576c-0.163,0.03-0.311,0.103-0.444,0.209  c-2.549,1.258-4.946,2.897-7.051,4.914c-4.931,4.727-7.923,10.896-8.423,17.367c-0.354,4.575,0.59,8.903,2.647,12.625  c0.024,0.048,0.034,0.097,0.06,0.146c0.01,0.019,0.031,0.026,0.042,0.045c0.854,1.508,1.874,2.924,3.097,4.198  c3.259,3.401,7.545,5.55,12.303,6.278c0.02,0.006,0.034,0.021,0.055,0.027c0.084,0.022,0.17,0.032,0.253,0.032  c0.01,0,0.018-0.009,0.028-0.01c1.066,0.147,2.147,0.248,3.254,0.248c4.786,0,9.598-1.456,13.824-4.06  c0.035-0.019,0.076-0.011,0.109-0.034c0.047-0.033,0.082-0.072,0.128-0.106c1.599-1.007,3.119-2.168,4.507-3.499  C91.05,54.546,92.701,40.564,85.806,31.277z M72.27,25.109c4.017,0.764,7.617,2.673,10.392,5.566  c0.131,0.136,0.238,0.287,0.364,0.426c-3.14,0.699-9.516,2.672-11.329,7.326c-0.841-0.256-1.725-0.504-2.646-0.746L72.27,25.109z   M68.234,24.73c0.679,0,1.349,0.034,2.012,0.095l-3.167,12.366c-0.982-0.229-1.929-0.432-2.84-0.606  c0.631-4.649-2.826-8.329-4.896-10.072C62.202,25.357,65.226,24.73,68.234,24.73z M51.073,31.866  c1.861-1.784,3.963-3.256,6.198-4.401c1.412,1.056,5.47,4.502,4.969,8.76c-7.471-1.181-12.282-0.509-14.959,0.224  C48.358,34.812,49.612,33.266,51.073,31.866z M43.27,47.922c0.233-3.024,1.064-5.977,2.416-8.726  c0.002-0.001,0.004-0.001,0.005-0.002c0.055-0.031,4.776-2.675,15.872-1.007c-1.312,2.157-4.56,4.871-7.744,7.517  c-4.021,3.342-8.118,6.758-9.707,10.029C43.365,53.286,43.058,50.655,43.27,47.922z M58.948,68.942  c-4.018-0.764-7.618-2.674-10.392-5.568c-1.127-1.175-2.063-2.485-2.843-3.882c-1.503-3.156,4.283-7.971,9.404-12.227  c3.733-3.101,7.279-6.053,8.569-8.715c0.924,0.173,1.885,0.375,2.889,0.609L58.948,68.942z M75.887,65.479  c-3.941,2.466-8.438,3.842-12.904,3.842c-0.679,0-1.349-0.034-2.011-0.095l7.575-29.578c0.943,0.248,1.841,0.503,2.695,0.766  c-0.143,2.846,1.329,6.747,2.879,10.847C76.261,56.926,78.672,63.326,75.887,65.479z M80.144,62.186  c-0.317,0.304-0.657,0.576-0.986,0.861c0.277-3.443-1.443-8.021-3.137-12.504c-1.318-3.486-2.654-7.054-2.74-9.467  c10.62,3.691,13.568,8.237,13.598,8.284c0.112,0.187,0.28,0.307,0.465,0.389C86.268,54.247,83.865,58.619,80.144,62.186z   M73.634,39.04c1.74-4.164,8.709-5.764,10.813-6.154c2.913,4.144,4.003,9.254,3.35,14.373C86.265,45.525,82.303,41.986,73.634,39.04  z M42.108,66.532c-4.038,2.882-6.423,5.376-7.816,7.405c-2.353-28.216-21.553-48.169-21.76-48.38  c-0.39-0.401-1.032-0.405-1.436-0.016c-0.401,0.391-0.408,1.035-0.016,1.436c0.21,0.216,20.727,21.565,21.399,51.107  c-0.152,1.01,0.012,1.627,0.067,1.797c0.139,0.423,0.533,0.698,0.964,0.698c0.053,0,0.108-0.004,0.162-0.012  c0.493-0.079,0.855-0.506,0.855-1.004c0-0.417-0.004-0.829-0.012-1.244c0.276-1.595,1.755-5.126,8.773-10.134  c0.456-0.327,0.562-0.96,0.236-1.416C43.2,66.314,42.564,66.207,42.108,66.532z"></path></svg>