<svg xmlns="http://www.w3.org/2000/svg" xmlns:xlink="http://www.w3.org/1999/xlink" version="1.0" x="0px" y="0px" viewBox="0 0 50 50" enable-background="new 0 0 50 50" xml:space="preserve"><path fill="#000000" d="M48.6,21.5H46c0.5-1.7,1.2-4.5,1.2-7.2c0-2.5-0.5-4.3-1.7-5.5c-1-1-2.3-1.4-4-1.4c-1.6,0-3,0.5-4,1.6  c-1.7,1.8-1.9,4.4-1.9,5.4c0,0,0,0.1,0,0.1h-0.1c-0.7,0-1.2,0.6-1.2,1.2s0.6,1.2,1.2,1.2h2.8c0.7,0,1.2-0.6,1.2-1.2  s-0.6-1.2-1.2-1.2h-0.2c0,0,0-0.1,0-0.1c0-0.6,0.1-2.5,1.2-3.6c0.5-0.6,1.3-0.8,2.2-0.8c1,0,1.7,0.2,2.2,0.7c0.7,0.7,1,1.9,1,3.7  c0,2.7-0.9,5.8-1.3,7.2H23v-1.3c0-0.7-0.6-1.2-1.2-1.2h-9.4c-0.7,0-1.2,0.6-1.2,1.2v1.3H1.4c-0.7,0-1.2,0.6-1.2,1.2S0.7,24,1.4,24  h1.1C2.6,27.5,4.1,34.9,8,40l-1.4,0c-0.7,0-1.2,0.6-1.2,1.2s0.6,1.2,1.2,1.2l4.2,0c0,0,0,0,0,0l14.1,0l18.4,0c0.7,0,1.2-0.6,1.2-1.2  S44,40,43.4,40L42,40c3.9-5.1,5.4-12.5,5.5-16h1.1c0.7,0,1.2-0.6,1.2-1.2S49.3,21.5,48.6,21.5z M13.6,29.6h6.9v1.5h-6.9V29.6z   M13.6,21.5h6.9v5.7h-6.9V21.5z M38.7,40L25,40l-13.7,0C7.1,35.9,5.1,27.8,5,24h6.1v8.4c0,0.7,0.6,1.2,1.2,1.2h9.4  c0.7,0,1.2-0.6,1.2-1.2V24h22C44.9,27.8,42.9,35.9,38.7,40z"></path></svg>