<?xml version="1.0" encoding="utf-8"?>
<!-- Generator: Adobe Illustrator 16.0.0, SVG Export Plug-In . SVG Version: 6.00 Build 0)  -->
<!DOCTYPE svg PUBLIC "-//W3C//DTD SVG 1.1//EN" "http://www.w3.org/Graphics/SVG/1.1/DTD/svg11.dtd">
<svg version="1.1" id="Layer_1" xmlns="http://www.w3.org/2000/svg" xmlns:xlink="http://www.w3.org/1999/xlink" x="0px" y="0px"
	 width="100.001px" height="64.612px" viewBox="0 0 100.001 64.612" enable-background="new 0 0 100.001 64.612"
	 xml:space="preserve">
<path fill="#010101" d="M99.709,46.19L100,45.611l-0.35-0.522l0.291-0.641l-0.35-0.522l0.232-0.581l-0.407-0.521l0.175-0.698
	l-0.406-0.464l0.114-0.582l-0.464-0.464l0.061-0.698l-0.463-0.406l0.06-0.64l-0.524-0.407v-0.639l-0.523-0.35V36.78l-0.521-0.291
	l-0.116-0.641l-0.58-0.349l-0.062-0.639l-0.58-0.232l-0.174-0.582l-0.581-0.232L94.6,33.176l-0.582-0.174l-0.23-0.639l-0.641-0.175
	l-0.232-0.581l-0.641-0.058l-0.348-0.581l-0.64-0.118l-0.349-0.521h-0.641l-0.349-0.581l-0.638,0.058l-0.465-0.522l-0.582,0.115
	l-0.406-0.522l-0.697,0.06l-0.465-0.465l-0.581,0.174l-0.466-0.465l-0.695,0.232l-0.521-0.465l-0.524,0.231l-0.581-0.349
	l-0.639,0.291l-0.523-0.349l-0.523,0.29L81,27.772l-0.521,0.349l-0.641-0.291l-0.523,0.349l-0.58-0.231l-0.522,0.465l-0.696-0.232
	l-0.466,0.465l-0.581-0.174l-0.464,0.465h-0.349l-3.312-12.261l2.383-0.812l0.812-0.29l-0.232-0.814L71.646,0.87L71.48,0
	L70.55,0.231l-3.545,0.814c-0.472,0.12-0.819,0.69-0.696,1.162C66.43,2.679,67,2.969,67.471,2.847l2.674-0.639l3.137,12.203
	l-2.323,0.755c-0.701,0.104-1.004,1.167-0.466,1.627l0.523,1.859L37.428,30.854l-1.104-3.485l0.814-0.581
	c0.06-0.042,0.087-0.11,0.116-0.174l1.162-2.673c0.026-0.064,0.06-0.186,0-0.232c-0.053-0.045-0.172-0.032-0.233,0l-0.697,0.406
	c-0.034,0.02-0.04,0.023-0.06,0.059l-0.872,1.976l-3.196,2.499l-0.232-0.059c-0.046-0.021-0.136-0.044-0.173,0
	c-0.126,0.124-0.234,0.262-0.35,0.349c-0.033,0.03-0.083,0.036-0.115,0.06c-0.06,0.039-0.066,0.109-0.06,0.174
	c0.013,0.065,0.053,0.162,0.117,0.174l0.813,0.116c0.12,0.024,0.25,0.021,0.349-0.058l0.987-0.756l1.046,3.138l-3.428,2.614
	l-0.117-0.348l-0.58-0.231l-0.232-0.642L30.8,33.005l-0.232-0.64l-0.64-0.175l-0.232-0.58l-0.639-0.061l-0.348-0.58l-0.639-0.119
	l-0.349-0.521h-0.639l-0.349-0.582l-0.639,0.059l-0.465-0.522l-0.581,0.115l-0.406-0.522l-0.698,0.058l-0.464-0.465l-0.581,0.174
	l-0.465-0.465l-0.697,0.232l-0.524-0.465l-0.523,0.232l-0.582-0.349l-0.638,0.29l-0.524-0.349l-0.523,0.29l-0.581-0.29h-0.06
	l-0.464,0.349l-0.64-0.29l-0.523,0.349l-0.581-0.232l-0.522,0.465l-0.698-0.232l-0.464,0.465l-0.582-0.174l-0.465,0.465
	l-0.697-0.058l-0.407,0.465L11.1,29.284l-0.407,0.465h-0.639L9.706,30.33H9.067l-0.35,0.522l-0.696,0.118l-0.291,0.58l-0.639,0.059
	l-0.232,0.58l-0.581,0.175l-0.233,0.581l-0.697,0.231l-0.232,0.581l-0.581,0.29L4.474,34.63l-0.638,0.232l-0.06,0.639L3.137,35.85
	l-0.06,0.641l-0.523,0.291l-0.06,0.696l-0.463,0.349v0.64l-0.523,0.406l0.06,0.64l-0.464,0.406l0.06,0.698L0.7,41.08l0.174,0.582
	l-0.467,0.464l0.233,0.696l-0.465,0.521l0.232,0.523l-0.348,0.582l0.231,0.639L0,45.613l0.29,0.521L0,46.774l0.29,0.522l-0.231,0.64
	l0.348,0.522L0.175,49.04l0.407,0.521L0.407,50.26l0.465,0.406l-0.173,0.64l0.464,0.465l-0.06,0.697l0.464,0.349l-0.06,0.697
	L2.03,53.92v0.64l0.465,0.351l0.06,0.638l0.523,0.35l0.06,0.696l0.64,0.291l0.06,0.581l0.639,0.291l0.06,0.581l0.581,0.231
	l0.232,0.697l0.698,0.174l0.231,0.581l0.582,0.115l0.233,0.642l0.638,0.057l0.291,0.64l0.697,0.059l0.349,0.522h0.582l0.406,0.522
	h0.64l0.407,0.521l0.581-0.057l0.465,0.464l0.639-0.059l0.522,0.465l0.582-0.174l0.465,0.406l0.639-0.174l0.582,0.406l0.581-0.232
	l0.523,0.349l0.581-0.232l0.582,0.351l0.581-0.351l0.582,0.351l0.522-0.351l0.639,0.232l0.523-0.349l0.581,0.232l0.522-0.349
	l0.697,0.115l0.465-0.406l0.582,0.174l0.464-0.465l0.697,0.059l0.408-0.466l0.581,0.058l0.465-0.521h0.64l0.348-0.523h0.64
	l0.349-0.521l0.639-0.059l0.349-0.64l0.639-0.06l0.232-0.638l0.639-0.117l0.233-0.58l0.581-0.175l0.173-0.639l0.64-0.29l0.061-0.582
	l0.639-0.291l0.06-0.58l0.581-0.29l0.116-0.698l0.523-0.348v-0.641l0.522-0.349l-0.061-0.64l0.581-0.406l-0.06-0.64l0.465-0.406
	l-0.06-0.64l0.461-0.52l-0.115-0.581l0.407-0.466l-0.175-0.639l0.406-0.58l-0.231-0.582l0.348-0.523l-0.29-0.581l0.348-0.579
	l-0.29-0.581l0.115-0.291l0.873-0.06l-0.116,0.232l0.29,0.291l-0.116,0.348l0.348,0.174l-0.115,0.407l0.406,0.174l-0.06,0.407
	l0.348,0.115v0.406l0.407,0.061l0.06,0.348h0.407l0.118,0.407l0.407-0.059l0.174,0.407l0.349-0.119l0.232,0.351l0.349-0.117
	l0.233,0.289l0.406-0.173l0.232,0.289l0.349-0.232l0.349,0.232l0.291-0.232l0.348,0.174l0.233-0.289l0.349,0.174l0.232-0.349
	l0.407,0.116l0.174-0.349l0.406,0.059l0.116-0.349l-0.581-0.58c-0.626,0.386-1.359,0.638-2.15,0.638
	c-2.269,0-4.125-1.855-4.125-4.125c0-2.269,1.857-4.126,4.125-4.126c2.268,0,4.067,1.857,4.067,4.126c0,0.79-0.196,1.524-0.582,2.15
	L46.43,47.7l0.349-0.118l-0.06-0.406l0.349-0.174l-0.116-0.35L47.3,46.42l-0.174-0.406l0.291-0.231l-0.232-0.35l0.291-0.291
	l-0.233-0.349l0.233-0.291l-0.291-0.29l0.174-0.348l-0.349-0.233l0.173-0.407l-0.348-0.174l0.116-0.406l-0.407-0.174v-0.058
	l25.799-18.711l1.628,5.927l-0.115,0.116h-0.641l-0.35,0.581h-0.639l-0.35,0.522l-0.695,0.119l-0.291,0.581l-0.641,0.057
	l-0.232,0.581l-0.58,0.175l-0.23,0.581l-0.699,0.232l-0.174,0.581l-0.58,0.29l-0.115,0.581l-0.642,0.23l-0.06,0.642l-0.64,0.349
	l-0.062,0.64l-0.522,0.291l-0.06,0.695l-0.465,0.351v0.639l-0.521,0.407l0.059,0.639l-0.465,0.407l0.062,0.696l-0.465,0.465
	l0.174,0.582l-0.465,0.464l0.23,0.698l-0.463,0.521l0.23,0.523l-0.349,0.58l0.231,0.641l-0.289,0.521l0.289,0.523l-0.289,0.638
	l0.289,0.523l-0.231,0.64l0.349,0.523l-0.23,0.58l0.405,0.522l-0.175,0.697l0.466,0.406l-0.175,0.64l0.465,0.465l-0.059,0.696
	l0.463,0.35l-0.06,0.696l0.522,0.408v0.638l0.465,0.351l0.061,0.64l0.523,0.348l0.061,0.697l0.641,0.29l0.06,0.582l0.64,0.291
	l0.115,0.58l0.582,0.232l0.174,0.696l0.697,0.174l0.232,0.582l0.58,0.116l0.231,0.639l0.64,0.06l0.291,0.641l0.696,0.059
	l0.351,0.521h0.58l0.406,0.523h0.641l0.405,0.521l0.581-0.057l0.467,0.465l0.637-0.059l0.524,0.466l0.58-0.175l0.466,0.406
	l0.639-0.174l0.582,0.406l0.58-0.232l0.523,0.35l0.58-0.232l0.582,0.349l0.581-0.349l0.581,0.349l0.521-0.349l0.641,0.232
	l0.521-0.35l0.582,0.232l0.522-0.351l0.696,0.117l0.465-0.406l0.582,0.175l0.465-0.466l0.697,0.059l0.406-0.465l0.58,0.059
	l0.467-0.521h0.638l0.35-0.523h0.64l0.349-0.521l0.64-0.06l0.348-0.64l0.641-0.059l0.232-0.64l0.641-0.115l0.23-0.582l0.582-0.17
	l0.176-0.64l0.638-0.291l0.116-0.58l0.64-0.291l0.062-0.581l0.58-0.291l0.115-0.696l0.523-0.35v-0.639l0.521-0.35l-0.06-0.639
	l0.582-0.407l-0.06-0.64l0.463-0.407l-0.061-0.638l0.465-0.521l-0.113-0.582l0.405-0.465l-0.175-0.64l0.407-0.581l-0.232-0.58
	l0.349-0.523l-0.291-0.581l0.351-0.582L99.709,46.19z M29.583,38.872c1.054,1.615,1.76,3.521,2.034,5.521l-10.053,0.639v-0.06
	L29.583,38.872z M18.427,59.559c-7.391,0-13.364-5.974-13.364-13.363c0-7.393,5.974-13.364,13.364-13.364
	c3.999,0,7.547,1.757,9.995,4.532l-8.019,6.157c-0.563-0.418-1.221-0.695-1.977-0.695c-1.861,0-3.37,1.51-3.37,3.37
	c0,1.859,1.509,3.369,3.37,3.369c1.628,0,2.94-1.137,3.253-2.673l10.112-0.64C31.758,53.617,25.799,59.559,18.427,59.559z
	 M39.229,40.907l-0.118,0.406l-0.407,0.059v0.407l-0.407,0.058v0.407l-0.348,0.117l0.06,0.405l-0.348,0.175l0.116,0.407
	l-0.348,0.174l0.173,0.406l-0.118,0.06l-1.045,0.057l-0.061-0.115l0.233-0.581l-0.406-0.522l0.173-0.696l-0.406-0.466l0.116-0.58
	l-0.464-0.466l0.06-0.697l-0.465-0.406l0.06-0.641l-0.523-0.405v-0.641l-0.522-0.348v-0.697l-0.523-0.29l-0.116-0.641l2.904-2.267
	l3.022,7.38L39.229,40.907z M45.331,41.023l-0.061-0.291l-0.406,0.059l-0.175-0.407l-0.407,0.118l-0.174-0.348l-0.407,0.116
	l-0.231-0.291l-0.35,0.176l-0.291-0.291l-0.349,0.232l-0.291-0.232L41.9,40.155l-0.348-0.233l-0.233,0.291l-0.174-0.058l-3.08-7.555
	l33.414-12.147l0.349,1.395L45.331,41.023z M81.589,59.559c-7.391,0-13.364-5.974-13.364-13.363c0-5.109,2.827-9.547,7.031-11.798
	l3.021,11.101c-0.039,0.219-0.06,0.464-0.06,0.697c0,1.859,1.509,3.369,3.37,3.369c1.859,0,3.37-1.51,3.37-3.369
	c0-1.86-1.511-3.37-3.37-3.37c-0.729,0-1.425,0.245-1.977,0.638l-2.672-9.819c1.438-0.528,3.021-0.812,4.647-0.812
	c7.392,0,13.365,5.973,13.365,13.364C94.954,53.585,88.98,59.559,81.589,59.559z"/>
<path fill="#010101" d="M27.143,28.762c0.026,0.046,0.067,0.048,0.116,0.06c1.65,0.306,3.13,0.352,4.764,0.231
	c0.979-0.254,1.774-1.906,2.208-2.557c1.788-1.955,4.843-3.423,6.973-4.3c0.066-0.026,0.118-0.108,0.115-0.175
	c0-0.355-0.207-0.67-0.464-0.87c-0.24-0.175-0.474-0.276-0.756-0.291l0.002-0.001c-0.282-0.021-0.619,0.09-0.873,0.231
	c-4.839,1.586-7.063,4.653-11.97,6.16c-0.361,0.202-0.541,0.676-0.349,1.045L27.143,28.762z"/>
<path fill="#010101" d="M40.216,48.169c0.837-0.883,1.629-1.395,2.15-1.395c0.454,0,1.088,0.42,1.801,1.104l2.732,2.731h2.148
	l-3.951-3.894c-0.619-0.67-0.93-1.314-0.93-1.744c0-0.521,0.511-1.312,1.395-2.148c-0.279-0.415-0.631-0.768-1.046-1.046
	c-0.837,0.883-1.628,1.395-2.15,1.395c-0.521,0-1.313-0.512-2.15-1.395c-0.415,0.276-0.766,0.631-1.045,1.046
	c0.884,0.836,1.395,1.628,1.395,2.148c0,0.522-0.51,1.313-1.395,2.149C39.45,47.539,39.802,47.891,40.216,48.169z M42.367,43.928
	c0.566,0,0.988,0.48,0.988,1.046c0,0.566-0.422,1.046-0.988,1.046c-0.565,0-1.045-0.479-1.045-1.046
	C41.322,44.408,41.801,43.928,42.367,43.928z"/>
<path fill="#010101" d="M42.367,46.02c0.566,0,0.988-0.479,0.988-1.046c0-0.565-0.422-1.046-0.988-1.046
	c-0.565,0-1.045,0.48-1.045,1.046C41.322,45.54,41.801,46.02,42.367,46.02z M42.367,44.16c0.465,0,0.813,0.349,0.813,0.812
	c0,0.466-0.348,0.871-0.813,0.871c-0.464,0-0.872-0.405-0.872-0.871C41.495,44.509,41.902,44.16,42.367,44.16z"/>
<path fill="#010101" d="M51.491,50.785h-5.289c-0.342,0-0.639,0.298-0.639,0.641v0.638c0,0.342,0.297,0.642,0.639,0.642h5.289
	c0.341,0,0.579-0.299,0.579-0.642v-0.638C52.07,51.082,51.832,50.785,51.491,50.785z M46.435,51.946
	c-0.116,0-0.232-0.118-0.232-0.232s0.118-0.173,0.232-0.173c0.114,0,0.175,0.059,0.175,0.173S46.549,51.946,46.435,51.946z
	 M47.306,52.062c-0.169,0-0.349-0.178-0.349-0.35c0-0.169,0.179-0.29,0.349-0.29s0.291,0.12,0.291,0.29
	C47.597,51.884,47.477,52.062,47.306,52.062z M48.817,52.528c-0.437,0-0.756-0.319-0.756-0.757c0-0.435,0.32-0.812,0.756-0.812
	c0.435,0,0.813,0.379,0.813,0.812C49.63,52.208,49.252,52.528,48.817,52.528z M50.385,52.062c-0.17,0-0.291-0.178-0.291-0.35
	c0-0.169,0.124-0.29,0.291-0.29c0.17,0,0.292,0.12,0.292,0.29C50.677,51.884,50.557,52.062,50.385,52.062z M51.258,51.946
	c-0.113,0-0.232-0.118-0.232-0.232s0.119-0.173,0.232-0.173s0.174,0.059,0.174,0.173S51.371,51.946,51.258,51.946z"/>
<path fill="#010101" d="M48.817,51.366c-0.221,0-0.408,0.186-0.408,0.405c0,0.223,0.187,0.351,0.408,0.351
	c0.221,0,0.407-0.126,0.407-0.351C49.224,51.551,49.038,51.366,48.817,51.366z"/>
</svg>
