<svg xmlns="http://www.w3.org/2000/svg" xmlns:xlink="http://www.w3.org/1999/xlink" version="1.1" x="0px" y="0px" viewBox="0 0 100 100" enable-background="new 0 0 100 100" xml:space="preserve"><path d="M93.142,68.491L60.229,21.275v-8.621c0-0.386-0.312-0.7-0.699-0.7h-2.046h-8.774c-0.387,0-0.699,0.313-0.699,0.7v3.06  c0,0.298,0.188,0.562,0.469,0.661l8.306,2.897v23.603L41.109,7.715c-0.108-0.244-0.346-0.404-0.611-0.415  c-0.288-0.014-0.516,0.132-0.643,0.366L6.817,68.558c-0.117,0.217-0.112,0.479,0.014,0.691s0.354,0.342,0.602,0.342h49.352v3.905  L33.817,70.41c-0.194-0.029-0.401,0.034-0.554,0.167c-0.151,0.133-0.238,0.325-0.238,0.527v4.604H17.812  c-0.387,0-0.699,0.313-0.699,0.7v1.558h-7.16c-0.263,0-0.504,0.147-0.623,0.382c-0.12,0.234-0.098,0.516,0.057,0.729l1.319,1.817  H8.352c-0.263,0-0.504,0.147-0.623,0.382c-0.12,0.234-0.098,0.516,0.057,0.729l3.75,5.166h-1.066c-0.387,0-0.699,0.313-0.699,0.7V92  c0,0.386,0.312,0.7,0.699,0.7h5.438h3.726h2.3h54.41c0.258,0,0.494-0.142,0.616-0.369l4.749-8.837  c0.314-0.069,0.554-0.336,0.554-0.67c0-0.093-0.02-0.181-0.053-0.262l1.917-3.567c0.116-0.217,0.11-0.479-0.016-0.69  c-0.126-0.211-0.354-0.341-0.601-0.341h-9.661v-1.558c0-0.028-0.013-0.051-0.016-0.078c-0.007-0.062-0.014-0.122-0.036-0.178  c-0.008-0.022-0.023-0.04-0.033-0.061c-0.031-0.06-0.065-0.117-0.111-0.166c-0.012-0.013-0.027-0.022-0.04-0.034  c-0.053-0.048-0.11-0.089-0.176-0.119c-0.016-0.007-0.033-0.011-0.05-0.017c-0.048-0.018-0.092-0.041-0.144-0.048l-13.013-1.748  v-4.368h32.339c0.261,0,0.5-0.145,0.62-0.376C93.309,68.984,93.29,68.705,93.142,68.491z M56.784,66.499h-2.75l2.75-0.935V66.499z   M49.408,15.217v-1.863h7.376v4.436L49.408,15.217z M40.409,9.581l16.375,36.728v17.776l-7.098,2.414H9.527L40.409,9.581z   M8.608,68.191l0.159-0.293h41.035h6.981v0.293H8.608z M18.511,77.106h53.938v0.858H58.83h-0.647H18.511V77.106z M9.724,82.292  h1.997l3.54,4.877h-1.997L9.724,82.292z M16.263,91.3h-5.095v-2.732h5.108l1.983,2.732H16.263z M75.924,91.3H20.56h-0.571  l-5.645-7.777h65.76L75.924,91.3z M82.339,79.364l-1.483,2.76H13.328l-2.004-2.76h6.487h39.672h2.046h13.619H82.339z M62.686,75.7  H34.424v-3.797L62.686,75.7z M58.183,73.683v-4.792v-1.693V46.16V18.774v-5.42h0.647v8.142v47.396v4.879L58.183,73.683z   M60.229,68.191V23.723l30.998,44.469H60.229z"></path></svg>