<svg xmlns="http://www.w3.org/2000/svg" xmlns:xlink="http://www.w3.org/1999/xlink" version="1.0" x="0px" y="0px" viewBox="0 0 50 50" enable-background="new 0 0 50 50" xml:space="preserve"><g><path fill="#000000" d="M37.7,28.3c1-0.6,1.4-1.5,1.4-2.6c0-1.7-1.2-2.9-2.7-3.1l1.5-13.5c0-0.3,0-0.6-0.2-0.8   C37.4,8,34.9,4.7,25.1,4.7c-9.7,0-12.3,3.3-12.5,3.7c-0.2,0.2-0.2,0.5-0.2,0.8l1.5,13.4c-1.7,0-2.9,1.4-2.9,3.1   c0,1.2,0.5,2.1,1.6,2.7L11.4,44c0,0.7,0.5,1.3,1.2,1.3c0,0,0.1,0,0.1,0c0.6,0,1.2-0.5,1.2-1.2l1.1-14.8c0.7,0.2,1.5,0.3,2.4,0.4   l0.3,11.6c0,0.7,0.6,1.2,1.2,1.2c0,0,0,0,0,0c0.7,0,1.2-0.6,1.2-1.3l-0.3-11.4C21.3,30,23,30,24.9,30h0.2c2,0,3.8,0,5.3-0.1   l-0.3,11.4c0,0.7,0.5,1.3,1.2,1.3c0,0,0,0,0,0c0.7,0,1.2-0.5,1.2-1.2l0.3-11.7c0.9-0.1,1.7-0.2,2.4-0.4l1.1,14.9   c0,0.7,0.6,1.2,1.2,1.2c0,0,0.1,0,0.1,0c0.7,0,1.2-0.6,1.2-1.3L37.7,28.3C37.7,28.4,37.7,28.3,37.7,28.3z M25.1,7.2   c6.7,0,9.4,1.7,10.2,2.3l-1.5,13.3c-0.1,0-0.2,0-0.4,0c-1.6,0.2-3.8,0.5-8.3,0.5h-0.2c-4.6,0-6.7-0.3-8.3-0.5c-0.1,0-0.1,0-0.2,0   L14.9,9.5C15.7,8.8,18.4,7.2,25.1,7.2z M24.9,27.5c-9.5,0-11.5-1-11.5-1.8c0-0.2,0.1-0.6,0.5-0.6c0.7,0,1.4,0.1,2.2,0.2   c1.7,0.2,3.9,0.6,8.7,0.6h0.2c4.8,0,7-0.3,8.7-0.6c0.9-0.1,1.5-0.2,2.2-0.2c0.5,0,0.5,0.4,0.5,0.6c0,0.8-2,1.8-11.5,1.8H24.9z"></path><path fill="#000000" d="M20,19.9c0.7,0,1.2-0.6,1.2-1.2v-5.8c0-0.7-0.6-1.2-1.2-1.2s-1.2,0.6-1.2,1.2v5.8   C18.8,19.4,19.3,19.9,20,19.9z"></path><path fill="#000000" d="M30,19.9c0.7,0,1.2-0.6,1.2-1.2v-5.8c0-0.7-0.6-1.2-1.2-1.2s-1.2,0.6-1.2,1.2v5.8   C28.8,19.4,29.3,19.9,30,19.9z"></path><path fill="#000000" d="M25,19.9c0.7,0,1.2-0.6,1.2-1.2v-5.8c0-0.7-0.6-1.2-1.2-1.2s-1.2,0.6-1.2,1.2v5.8   C23.8,19.4,24.3,19.9,25,19.9z"></path></g></svg>