<svg fill="#000000" xmlns="http://www.w3.org/2000/svg" xmlns:xlink="http://www.w3.org/1999/xlink" version="1.1" x="0px" y="0px" viewBox="0 0 100 100" enable-background="new 0 0 100 100" xml:space="preserve"><path d="M77,63.5v2c0,0.552-0.448,1-1,1H24c-0.552,0-1-0.448-1-1v-2c0-0.552,0.448-1,1-1h52C76.552,62.5,77,62.948,77,63.5z"/><path d="M77,71.5v2c0,0.552-0.448,1-1,1H24c-0.552,0-1-0.448-1-1v-2c0-0.552,0.448-1,1-1h52C76.552,70.5,77,70.948,77,71.5z"/><path d="M77,79.5v2c0,0.552-0.448,1-1,1H24c-0.552,0-1-0.448-1-1v-2c0-0.552,0.448-1,1-1h52C76.552,78.5,77,78.948,77,79.5z"/><path d="M57,31.4V17.008c0-0.327,0.313-0.576,0.629-0.492c6.888,1.83,12.152,7.631,13.18,14.81c0.043,0.301-0.2,0.574-0.504,0.574  H57.5C57.224,31.9,57,31.676,57,31.4z"/><path d="M32.114,38.953c-1.182-10.684,6.996-19.754,17.37-20.046C49.765,18.899,50,19.133,50,19.415V38.4c0,0.276,0.224,0.5,0.5,0.5  h16.807c0.304,0,0.546,0.272,0.503,0.573c-1.316,9.192-9.57,16.145-19.29,15.368C40.035,54.163,33.05,47.414,32.114,38.953z"/><path d="M81,8.5H19c-2.209,0-4,1.791-4,4v75c0,2.209,1.791,4,4,4h62c2.209,0,4-1.791,4-4v-75C85,10.291,83.209,8.5,81,8.5z M81,87.5  H19v-75h62V87.5z"/></svg>