<svg xmlns="http://www.w3.org/2000/svg" xmlns:xlink="http://www.w3.org/1999/xlink" version="1.1" x="0px" y="0px" viewBox="0 0 100 100" enable-background="new 0 0 100 100" xml:space="preserve"><g><path fill="#000000" d="M51.3,27.9h6.2v-6.2h-6.2V27.9z M53.3,23.7h2.2v2.2h-2.2V23.7z"></path><path fill="#000000" d="M66,38.6h-6.2v6.2H66V38.6z M64,42.9h-2.2v-2.2H64V42.9z"></path><path fill="#000000" d="M66,21.7h-6.2v6.2H66V21.7z M64,25.9h-2.2v-2.2H64V25.9z"></path><path fill="#000000" d="M51.3,53.7h6.2v-6.2h-6.2V53.7z M53.3,49.5h2.2v2.2h-2.2V49.5z"></path><path fill="#000000" d="M51.3,44.9h6.2v-6.2h-6.2V44.9z M53.3,40.6h2.2v2.2h-2.2V40.6z"></path><path fill="#000000" d="M51.3,36.4h6.2v-6.2h-6.2V36.4z M53.3,32.1h2.2v2.2h-2.2V32.1z"></path><path fill="#000000" d="M66,30.1h-6.2v6.2H66V30.1z M64,34.4h-2.2v-2.2H64V34.4z"></path><path fill="#000000" d="M20.9,84.1h6.2v-6.2h-6.2V84.1z M22.9,79.9h2.2v2.2h-2.2V79.9z"></path><path fill="#000000" d="M31.3,48.2h-6.2v6.2h6.2V48.2z M29.3,52.4h-2.2v-2.2h2.2V52.4z"></path><path fill="#000000" d="M20.9,75.6h6.2v-6.2h-6.2V75.6z M22.9,71.4h2.2v2.2h-2.2V71.4z"></path><path fill="#000000" d="M31.3,39.7h-6.2v6.2h6.2V39.7z M29.3,43.9h-2.2v-2.2h2.2V43.9z"></path><path fill="#000000" d="M20.9,67.1h6.2v-6.2h-6.2V67.1z M22.9,62.9h2.2v2.2h-2.2V62.9z"></path><path fill="#000000" d="M39.8,48.2h-6.2v6.2h6.2V48.2z M37.8,52.4h-2.2v-2.2h2.2V52.4z"></path><path fill="#000000" d="M39.8,39.7h-6.2v6.2h6.2V39.7z M37.8,43.9h-2.2v-2.2h2.2V43.9z"></path><path fill="#000000" d="M29.3,75.6h6.2v-6.2h-6.2V75.6z M31.3,71.4h2.2v2.2h-2.2V71.4z"></path><path fill="#000000" d="M29.3,67.1h6.2v-6.2h-6.2V67.1z M31.3,62.9h2.2v2.2h-2.2V62.9z"></path><path fill="#000000" d="M29.3,84.1h6.2v-6.2h-6.2V84.1z M31.3,79.9h2.2v2.2h-2.2V79.9z"></path><path fill="#000000" d="M37.8,84.1h6.2v-6.2h-6.2V84.1z M39.8,79.9h2.2v2.2h-2.2V79.9z"></path><path fill="#000000" d="M37.8,67.1h6.2v-6.2h-6.2V67.1z M39.8,62.9h2.2v2.2h-2.2V62.9z"></path><path fill="#000000" d="M37.8,75.6h6.2v-6.2h-6.2V75.6z M39.8,71.4h2.2v2.2h-2.2V71.4z"></path><path fill="#000000" d="M70.2,52.6V15.3l-4.6-1.4l0-3.2H55.2L47,8.2v44.1h-3V40.4l-4.6-9.2h-3.9v-5h-6.2v5h-3.9l-4.6,9.2v11.8h-3.7   l-4.8,4.9v35.3h40.2v-5h12.2v4.8h23.2V52.6H70.2z M85.9,90.4H66.7v-2.8v-1v-1v-31h1.5h1h1h15.7V90.4z M50.6,87.6v3H14.4V58.1   l3.7-3.8h4.8V40.9l3.9-7.7h4.6v-5h2.2v5h4.6l3.9,7.7v13.4h4.8l0.2,0.2l1,1l1,1l1.5,1.6v27.6v1V87.6z M53.3,77.1v-2.2h2.2v2.2H53.3z    M53.3,68.7v-2.2h2.2v2.2H53.3z M53.3,60.2v-2.2h2.2v2.2H53.3z M52.6,79.1h5v-6.2h-5v-2.2h5v-6.2h-5v-2.2h5v-6.2h-6.2v0L49,53.6   V10.9l5.7,1.7l9,0v2.7l4.6,1.4v35.8H66v-5.1h-6.2v6.2h4.9v2.2h-4.9v6.2h4.9v2.2h-4.9v6.2h4.9v2.2h-4.9v6.2h4.9v6.5H52.6V79.1z    M64,49.5v2.2h-2.2v-2.2H64z M64,57.9v2.2h-2.2v-2.2H64z M64,66.4v2.2h-2.2v-2.2H64z M64,74.9v2.2h-2.2v-2.2H64z"></path><path fill="#000000" d="M83.7,69.3h-6.2v6.2h6.2V69.3z M81.7,73.6h-2.2v-2.2h2.2V73.6z"></path><path fill="#000000" d="M83.7,60.8h-6.2v6.2h6.2V60.8z M81.7,65.1h-2.2v-2.2h2.2V65.1z"></path><path fill="#000000" d="M83.7,77.8h-6.2V84h6.2V77.8z M81.7,82h-2.2v-2.2h2.2V82z"></path><path fill="#000000" d="M69.2,77.8H69V84h0.3h1h4.9v-6.2h-4.9H69.2z M73.2,82H71v-2.2h2.2V82z"></path><path fill="#000000" d="M69.2,60.8H69v6.2h0.3h1h4.9v-6.2h-4.9H69.2z M73.2,65.1H71v-2.2h2.2V65.1z"></path><path fill="#000000" d="M69.2,69.3H69v6.2h0.3h1h4.9v-6.2h-4.9H69.2z M73.2,73.6H71v-2.2h2.2V73.6z"></path></g></svg>