<svg xmlns="http://www.w3.org/2000/svg" xmlns:xlink="http://www.w3.org/1999/xlink" version="1.0" x="0px" y="0px" viewBox="0 0 50 50" enable-background="new 0 0 50 50" xml:space="preserve"><g><path d="M42.9,7.1c-3.9-3.9-11.6-0.3-16.8,5l-3.9,3.9c-1.4-3-3.3-5-3.3-5c-0.4-0.4-0.9-0.5-1.4-0.3c-0.5,0.2-0.8,0.6-0.8,1.2   c0,0.1-0.1,9.7-4.7,14.3c-5.3,5.3-8.8,13-5,16.8c1.1,1.1,2.6,1.6,4.3,1.6c3.7,0,8.5-2.5,12.6-6.6c4.6-4.6,14.2-4.7,14.3-4.7   c0.5,0,1-0.3,1.2-0.8c0.2-0.5,0.1-1-0.3-1.4c-0.1-0.1-2-2-5-3.4l3.9-3.9C43.3,18.6,46.8,10.9,42.9,7.1z M34.8,31   c-3.6,0.4-9.2,1.7-12.7,5.2c-3.6,3.6-7.8,5.9-10.8,5.9c-1.1,0-1.9-0.3-2.5-0.9c-2.3-2.3-0.1-8.3,5-13.3c3.5-3.5,4.8-9.1,5.2-12.7   c2.1,3.4,4.5,9.7-1.9,16c-0.2,0.2-0.4,0.6-0.4,0.9s0.1,0.6,0.4,0.9c0.5,0.5,1.3,0.5,1.8,0c2.7-2.7,5.7-4.1,8.9-4.1   C30.6,28.8,33.1,29.9,34.8,31z M31.5,26.8c-1.2-0.3-2.5-0.5-3.8-0.5c-1.7,0-3.4,0.3-5,1c1.3-3.2,1.1-6.2,0.4-8.8l4.7-4.7   c5-5,11-7.3,13.3-5c2.3,2.3,0.1,8.3-5,13.3L31.5,26.8z"></path><path d="M25.9,19.2c-0.8,0-1.5,0.7-1.5,1.5c0,0.8,0.7,1.5,1.5,1.5c0.4,0,0.8-0.2,1.1-0.4c0.3-0.3,0.4-0.7,0.4-1   c0-0.4-0.1-0.8-0.4-1.1C26.7,19.4,26.3,19.2,25.9,19.2z"></path><path d="M30.8,17.3c0-0.8-0.7-1.5-1.5-1.5c-0.8,0-1.5,0.7-1.5,1.5c0,0.8,0.7,1.5,1.5,1.5c0.4,0,0.8-0.2,1.1-0.4   C30.7,18.1,30.8,17.7,30.8,17.3z"></path><path d="M34.2,14c0-0.4-0.1-0.8-0.4-1.1c-0.3-0.3-0.7-0.4-1.1-0.4c-0.8,0-1.5,0.7-1.5,1.5c0,0.8,0.7,1.5,1.5,1.5   c0.4,0,0.8-0.2,1.1-0.4C34,14.7,34.2,14.3,34.2,14z"></path><path d="M37.6,10.6c0-0.8-0.7-1.5-1.5-1.5s-1.5,0.7-1.5,1.5c0,0.8,0.7,1.5,1.5,1.5h0C36.9,12.1,37.6,11.4,37.6,10.6z"></path><path d="M31,20.9c-0.8,0-1.5,0.7-1.5,1.5c0,0.8,0.7,1.5,1.5,1.5c0.8,0,1.5-0.7,1.5-1.5C32.5,21.6,31.8,20.9,31,20.9z"></path><path d="M34.4,17.5c-0.8,0-1.5,0.7-1.5,1.5s0.7,1.5,1.5,1.5c0.8,0,1.5-0.7,1.5-1.5S35.2,17.5,34.4,17.5z"></path><path d="M37.7,14.1c-0.8,0-1.5,0.7-1.5,1.5c0,0.8,0.7,1.5,1.5,1.5c0.8,0,1.5-0.7,1.5-1.5C39.2,14.8,38.6,14.1,37.7,14.1z"></path></g></svg>