<svg xmlns="http://www.w3.org/2000/svg" xmlns:xlink="http://www.w3.org/1999/xlink" version="1.1" x="0px" y="0px" viewBox="0 0 64 64" enable-background="new 0 0 64 64" xml:space="preserve"><g><path fill="#000000" d="M19.67,40.087c-0.36,0.25-0.528,0.598-0.496,1.034c0.017,0.237,0.09,0.475,0.153,0.655   c0.038,0.112,0.082,0.222,0.125,0.332l2.756,7.136l-0.043,0.017c-0.145,0.057-0.265,0.105-0.387,0.145l-1.237,0.402   c-3.534,1.149-7.067,2.297-10.603,3.439c-0.44,0.142-1.371,0.436-1.204,1.498c0.175,1.046,1.173,1.024,1.549,1.016   c3.817-0.082,7.636-0.146,11.453-0.209c0.237-0.004,0.473,0.013,0.747,0.033c0.031,0.002,0.063,0.004,0.095,0.007l-0.613,1.414   c-0.664,1.532-1.307,3.015-1.961,4.495c-0.334,0.756-0.221,1.295,0.304,1.69c0.792,0.596,1.484,0.011,1.711-0.181   c0.85-0.719,1.706-1.432,2.562-2.144l2.456-2.045c1.058-0.881,2.116-1.762,3.173-2.645c0.784-0.656,0.926-1.324,0.438-1.929   c-0.215-0.266-0.474-0.416-0.77-0.446c-0.386-0.039-0.813,0.133-1.27,0.512c-0.354,0.293-0.707,0.589-1.06,0.884   c-0.309,0.259-0.619,0.517-0.929,0.775c-0.641,0.532-1.283,1.062-1.924,1.593l-0.435,0.359c0.015-0.04,0.031-0.081,0.049-0.122   c0.161-0.375,0.325-0.748,0.489-1.121c0.235-0.536,0.47-1.072,0.698-1.612c0.149-0.352,0.214-0.669,0.195-0.94   c-0.028-0.389-0.263-1.046-1.522-1.074c-0.228-0.005-0.457,0.005-0.685,0.015c-0.141,0.006-0.282,0.012-0.422,0.015l-4.859,0.08   l2.142-0.698c1.23-0.4,2.46-0.8,3.689-1.205c0.927-0.306,1.231-0.859,0.932-1.797c-0.051-0.16-0.116-0.315-0.182-0.47   c-0.038-0.09-0.076-0.18-0.111-0.271l-1.451-3.831c0.047,0.033,0.092,0.069,0.14,0.109l2.263,1.859   c0.964,0.793,1.928,1.586,2.893,2.376c0.705,0.578,1.443,0.583,1.925,0.013c0.221-0.262,0.322-0.542,0.301-0.834   c-0.026-0.365-0.242-0.719-0.642-1.051c-0.506-0.421-1.019-0.833-1.533-1.246l-2.344-1.894c-1.617-1.308-3.234-2.616-4.846-3.93   C21.151,40.106,20.458,39.54,19.67,40.087z"></path><path fill="#000000" d="M44.067,6.649c-1.077-0.831-2.062-0.822-2.965-0.109c-1.429,1.135-2.512,3.151-4.008,4.506   c-0.574,0.525-1.21,0.948-1.957,1.186c-2.818,0.889-5.404-0.294-8.164-0.706c-0.738-0.109-3.207-0.485-3.815,0.092   c-0.679,0.644-0.244,3.621-0.255,4.616c-0.003,0.293-0.293,0.496-0.568,0.397c-1.541-0.552-3.96-2.07-5.587-1.664   c-1.405,0.351-2.472,2.029-3.406,2.974c0,0-0.102,0.104-0.102,0.104c-1.85,1.886-3.662,3.817-5.519,5.696   c-1.341,1.406-1.769,3.304-0.995,5.844c0.455,1.481,1.23,2.929,1.826,4.358c0.463,1.113,0.937,2.216,1.342,3.354   c0.409,1.148,0.897,2.423,2.058,2.996c1.15,0.563,2.432,0.02,3.42-0.628c1.498-0.977,0.859-2.237,0.332-3.632   c-0.799-2.107-2.751-5.114-2.889-7.511c-0.05-0.944,0.175-1.794,0.861-2.454c1.212-1.165,2.679-3.361,4.486-1.645   c0.718,0.689,1.263,2.204,1.737,3.812c0.487,1.656,0.903,3.405,1.356,4.439c1.708,3.888,4.549,5.959,8.134,5.012   c2.141,1.625,5.963,6.487,6.443,7.556c1.426,3.178,1.352,7.408,1.86,10.842c0.721,2.058,2.108,2.953,4.265,2.507   c1.589-0.409,2.445-1.371,2.731-2.765c0.764-3.731-0.511-9.346-2.098-12.744c-0.5-1.071-4.725-7.208-6.365-7.955   c2.01-0.757,4.045-1.404,5.803-1.448c3.956-0.092,4.53,1.123,7.667,4.223c1.285,1.27,2.446,2.997,4.478,2.793   c1.534-0.15,3.056-1.303,3.424-2.837c0.332-1.386-0.736-2.434-1.617-3.304l-6.419-6.342c-2.094-2.144-4.544-2.899-7.313-2.446   l-7.543,2.106c0,0-1.804-4.165-3.312-7.635c-0.425-0.987-0.829-1.918-1.16-2.682c0.31,0.716,2.179,0.808,4.115,0.624   c1.939-0.18,3.949-0.632,4.531-0.992c2.542-1.578,4.798-5.043,6.925-7.195C46.052,8.447,45.359,7.393,44.067,6.649z"></path><path fill="#000000" d="M14.723,12.079c0.758,0.258,1.592,0.358,2.549,0.304c0.95-0.053,1.832-0.443,2.535-1.155   c0.002-0.002,0.005-0.005,0.006-0.008l0.098-0.094c0.654-0.662,1.037-1.552,1.078-2.506c0.042-0.957-0.068-1.79-0.336-2.547   c-0.566-1.584-1.399-2.935-2.481-4.022l-0.121-0.124c-0.123-0.128-0.248-0.255-0.39-0.369c-1.402-1.132-3.037-1.315-4.728-0.528   c-0.698,0.328-1.359,0.798-1.974,1.409c-0.592,0.61-1.054,1.277-1.375,1.982c-0.766,1.698-0.563,3.33,0.586,4.72   c0.116,0.139,0.244,0.262,0.373,0.384l0.13,0.125C11.77,10.715,13.131,11.531,14.723,12.079z M19.294,10.518L19.294,10.518   l0.006,0.005L19.294,10.518z"></path></g></svg>