<svg fill="#000000" xmlns:dc="http://purl.org/dc/elements/1.1/" xmlns:cc="http://creativecommons.org/ns#" xmlns:rdf="http://www.w3.org/1999/02/22-rdf-syntax-ns#" xmlns:svg="http://www.w3.org/2000/svg" xmlns="http://www.w3.org/2000/svg" xmlns:sodipodi="http://sodipodi.sourceforge.net/DTD/sodipodi-0.dtd" xmlns:inkscape="http://www.inkscape.org/namespaces/inkscape" version="1.1" x="0px" y="0px" viewBox="0 0 100 100"><g transform="translate(0,-952.36218)"><path style="text-indent:0;text-transform:none;direction:ltr;block-progression:tb;baseline-shift:baseline;color:#000000;enable-background:accumulate;" d="m 40.001687,961.36215 c -17.062399,0 -31.0016993,13.93913 -31.0016993,31.00165 0,17.0625 13.9393003,31.0017 31.0016993,31.0017 6.7315,0 12.9684,-2.2002 18.0634,-5.8753 l 24.4077,24.4076 c 1.9525,1.9524 5.11,1.9527 7.0627,0 1.9527,-1.9526 1.9527,-5.1102 0,-7.0629 l -24.4075,-24.4076 c 3.6751,-5.0951 5.8753,-11.3319 5.8753,-18.0635 0,-17.06252 -13.9392,-31.00165 -31.0016,-31.00165 z m 0,10.00054 c 11.6577,0 21.0011,9.34334 21.0011,21.00111 0,11.6577 -9.3434,21.0012 -21.0011,21.0012 -11.6578,0 -21.001199,-9.3435 -21.001199,-21.0012 0,-11.65777 9.343399,-21.00111 21.001199,-21.00111 z" fill="#000000" fill-opacity="1" stroke="none" marker="none" visibility="visible" display="inline" overflow="visible"/></g></svg>