<svg fill="#000000" xmlns="http://www.w3.org/2000/svg" xmlns:xlink="http://www.w3.org/1999/xlink" version="1.1" x="0px" y="0px" viewBox="0 0 100 100" style="enable-background:new 0 0 100 100;" xml:space="preserve"><g><path d="M6,72.3h88c1.9,0,3.3-1.5,3.3-3.3s-1.5-3.3-3.3-3.3h-3.5c-1.1-17.3-14.7-31.5-32.4-34.9c0.7-1.3,1.1-2.8,1.1-4.4   c0-5.2-4.1-9.3-9.3-9.3s-9.3,4.1-9.3,9.3c0,1.6,0.4,3.1,1.1,4.4C23.9,34.2,10.4,48.3,9.2,65.7H6c-1.9,0-3.3,1.5-3.3,3.3   S4.1,72.3,6,72.3z M50,23.5c1.5,0,2.7,1.2,2.7,2.7c0,1.5-1.2,2.7-2.7,2.7s-2.7-1.2-2.7-2.7S48.5,23.5,50,23.5z M50,36.6   c17.9,0,32.7,12.8,33.9,29.1H16.1C17.3,49.4,32.1,36.6,50,36.6z"/><path d="M94,76.3H6c-1.9,0-3.3,1.5-3.3,3.3S4.1,83,6,83h88c1.9,0,3.3-1.5,3.3-3.3S95.9,76.3,94,76.3z"/></g></svg>