<svg fill="#000000" xmlns="http://www.w3.org/2000/svg" xmlns:xlink="http://www.w3.org/1999/xlink" version="1.1" x="0px" y="0px" viewBox="0 0 100 100" enable-background="new 0 0 100 100" xml:space="preserve"><path d="M53.3,97.4h-6.7c-1.4,0-2.7-1-3-2.3l-0.7-2.5c-2.1-0.3-3.7-2.1-3.7-4.3v-2.8c0-1.4,1.1-2.7,2.7-2.7H58  c1.4,0.1,2.6,1.2,2.6,2.7v2.8c0,2.2-1.6,4-3.7,4.3l-0.7,2.5C55.8,96.4,54.6,97.4,53.3,97.4z M50,17c1.4,0,2.6-1.1,2.6-2.6V5.2  c0-1.4-1.1-2.6-2.6-2.6s-2.6,1.1-2.6,2.6v9.2C47.4,15.9,48.6,17,50,17z M7.5,50.3h9.2c1.3,0,2.6-1.1,2.6-2.6s-1.1-2.6-2.6-2.6H7.5  c-1.4,0-2.6,1.1-2.6,2.6S6,50.3,7.5,50.3z M92.5,45.2h-9.2c-1.4,0-2.6,1.1-2.6,2.6s1.1,2.6,2.6,2.6h9.2c1.4,0,2.6-1.1,2.6-2.6  C95.2,46.3,94.1,45.2,92.5,45.2z M28.2,69.5c-1-1-2.6-1-3.6,0L18,76c-1.1,1.1-1.1,2.7,0,3.7c0.5,0.5,1.1,0.8,1.8,0.8  c0.7,0,1.3-0.3,1.8-0.8l6.5-6.5C29.2,72.2,29.2,70.6,28.2,69.5z M73.7,26.8c0.7,0,1.3-0.3,1.8-0.8l6.5-6.5c1.1-1.1,1.1-2.7,0-3.7  s-2.7-1.1-3.7,0l-6.5,6.5c-1.1,1.1-1.1,2.7,0,3.7C72.3,26.5,73,26.8,73.7,26.8z M24.5,26c0.5,0.5,1.1,0.8,1.8,0.8s1.3-0.3,1.8-0.8  c1.1-1.1,1.1-2.7,0-3.7l-6.5-6.5c-1.1-1.1-2.7-1.1-3.7,0s-1.1,2.7,0,3.7L24.5,26z M81.9,76l-6.4-6.5c-1.1-1.1-2.7-1.1-3.7,0  c-1.1,1.1-1.1,2.7,0,3.7l6.5,6.5c0.5,0.5,1.1,0.8,1.8,0.8c0.7,0,1.3-0.3,1.8-0.8C82.9,78.7,82.9,77.1,81.9,76z M25.6,48.3  c-0.1-13.4,10.7-24.4,24-24.5l0.2,0c13.4,0,24.4,10.8,24.4,24.2c0,6.2-2.5,12.4-6.8,16.8c-2.5,2.6-4.1,5.8-4.6,9.3  c-0.5,3-3.1,5.3-6.2,5.3H43.2c-3.1,0-5.7-2.2-6.2-5.3c-0.5-3.5-2.2-6.8-4.6-9.3C28.1,60.3,25.7,54.5,25.6,48.3z M32.3,48.1  c0,4.7,1.9,9,4.9,12.1c3.4-2.4,6.5-4,7.3-4.4c0.1,0,0.2-0.2,0.2-0.3v-2.3c-0.6-1-0.9-2.2-1.1-3.2c-0.4,0-0.8-0.5-1.3-2.3  c-0.7-2.4,0-2.8,0.7-2.7c-0.5-1.3-0.5-2.5-0.2-3.7c0.3-1.4,1.1-2.5,1.9-3.3c0.5-0.6,1.1-1.1,1.8-1.5c0.5-0.4,1.1-0.7,1.7-0.9l0,0  c0.5-0.2,1-0.3,1.6-0.3c1.7-0.1,3,0.3,3.9,0.8c1.4,0.8,1.9,1.8,1.9,1.8s3.5,0.2,1.9,7.5c0.5,0.2,0.8,0.8,0.3,2.7  c-0.7,2.3-1.3,2.5-1.6,2.2c-0.1,0.8-0.4,1.7-0.8,2.5c0,1.2,0,2.3,0,2.7c0,0.1,0.1,0.2,0.2,0.3c0.7,0.4,3.9,2,7.3,4.4  c3-3.2,4.9-7.4,4.9-12.1c0-9.7-7.9-17.6-17.6-17.6C40.2,30.5,32.3,38.3,32.3,48.1z"/></svg>