<svg xmlns="http://www.w3.org/2000/svg" xmlns:xlink="http://www.w3.org/1999/xlink" version="1.1" x="0px" y="0px" viewBox="0 0 256 256" style="enable-background:new 0 0 256 256;" xml:space="preserve"><path d="M227.4,87.8l-16-20.1c-4.7-5.9-13.1-7.4-19.5-3.3h0l-13.3,8.3c-4.3,2.7-9.7,2.8-14.2,0.4l-10.6-5.9  c-7.3-4.1-16.2-3.7-23.2,0.8l-2.5,1.6l-2.4-1.5c-8.3-5-18.4-5.5-27-1.2L95,68.8c-7.2,3.5-15.6,3.3-22.6-0.6l-2.5-1.4  c-7.3-4.1-16.7-2.6-22.3,3.8L29.9,90.7c-2.7,3-4,6.9-3.7,11c0.3,4,2.2,7.7,5.3,10.3l15.8,13.3l-7.1,7.6c-2.6,2.8-4,6.5-3.9,10.4  c0.1,3.9,1.8,7.5,4.6,10.1h0c2,1.8,4.3,3,6.8,3.6c-0.9,2-1.4,4.2-1.3,6.5c0.1,3.9,1.8,7.5,4.6,10.1c0,0,0,0,0,0  c2.8,2.6,6.3,3.9,9.9,3.9c1.8,0,3.5-0.3,5.2-1c0.6,2.8,2.1,5.4,4.2,7.4c0,0,0,0,0,0c2.8,2.6,6.3,3.9,9.9,3.9c2.6,0,5.1-0.7,7.4-2  c0.7,2.4,2,4.6,3.9,6.3c0,0,0,0,0,0c2.8,2.6,6.3,3.9,9.9,3.9c3.9,0,7.8-1.5,10.6-4.6l6.2-6.6l9.8,8.2c2.6,2.1,5.7,3.2,8.7,3.2  c3.7,0,7.4-1.5,10.1-4.5c1.4-1.5,2.4-3.3,2.9-5.2l3,2.7c6,5.3,15.2,4.8,20.6-1c2-2.2,3.3-4.9,3.7-7.7c5.1,1.6,11,0.3,14.8-4  c3.3-3.6,4.3-8.6,3.2-13c2.9-0.5,5.6-2,7.6-4.3c2.5-2.7,3.7-6.3,3.5-10s-1.9-7-4.7-9.4l-1.1-1l26.5-30.1  C232.1,102.7,232.3,94,227.4,87.8z M46.3,147.5c-1.3-1.2-2-2.9-2.1-4.6c-0.1-1.8,0.6-3.5,1.8-4.8l15.7-16.8c1.3-1.4,3.1-2.1,4.8-2.1  c1.6,0,3.2,0.6,4.5,1.8c1.3,1.2,2,2.9,2.1,4.6s-0.6,3.5-1.8,4.8l-15.7,16.8c-1.2,1.3-2.8,2-4.6,2.1  C49.3,149.3,47.6,148.7,46.3,147.5C46.3,147.5,46.3,147.5,46.3,147.5z M56.3,167.7c-1.3-1.2-2-2.9-2.1-4.6c-0.1-1.8,0.6-3.5,1.8-4.8  l21.5-23c2.5-2.7,6.7-2.8,9.4-0.3c2.7,2.5,2.8,6.7,0.3,9.4l-4.4,4.7c0,0,0,0,0,0l-6,6.4l-11.2,11.9C63.2,170,59,170.2,56.3,167.7z   M75.6,178c-1.3-1.2-2-2.9-2.1-4.6c-0.1-1.8,0.6-3.5,1.8-4.8l7.3-7.8l6-6.4c2.5-2.7,6.7-2.8,9.4-0.3c2.7,2.5,2.8,6.7,0.3,9.4  l-1.7,1.8l-5.8,6.2c0,0,0,0,0,0l-5.8,6.2C82.5,180.3,78.3,180.5,75.6,178z M106.3,185.9c-2.5,2.7-6.7,2.8-9.4,0.3  c-2.7-2.5-2.8-6.7-0.3-9.4l7.5-8c0,0,0,0,0,0l0,0c1.2-1.3,2.8-2,4.6-2.1c1.8-0.1,3.5,0.6,4.8,1.8c2.7,2.5,2.8,6.7,0.3,9.4  L106.3,185.9z M196.9,153.8c-1,1.2-2.5,1.8-4,1.9c-1.6,0.1-3-0.5-4.2-1.5l-27-25.2c-1.6-1.5-4.1-1.4-5.6,0.2  c-1.5,1.6-1.4,4.1,0.2,5.6l29.3,27.6c2.5,2.3,2.6,6.3,0.4,8.8c-2.3,2.6-6.3,2.8-8.9,0.4l-4.7-4.3c0,0,0,0-0.1-0.1l-22.8-20.6  c-1.6-1.5-4.1-1.3-5.6,0.3c-1.5,1.6-1.3,4.1,0.3,5.6l22.8,20.7c1.3,1.2,2.1,2.9,2.2,4.7c0.1,1.8-0.6,3.6-1.8,5  c-2.5,2.7-6.8,3-9.6,0.5l-12.2-10.8c0,0,0,0-0.1-0.1L134,161.9c-1.6-1.4-4.1-1.3-5.6,0.3c-1.4,1.6-1.3,4.1,0.3,5.6l11.7,10.4  c1.1,1,1.8,2.4,1.9,3.9c0.1,1.5-0.4,3-1.5,4.1c-2.1,2.3-5.5,2.5-7.9,0.5l-10.4-8.7c1.8-5.3,0.5-11.3-3.8-15.4  c-2.8-2.6-6.5-4-10.4-3.9c-0.2,0-0.3,0-0.5,0c0-3.9-1.5-7.7-4.6-10.5c-2.1-2-4.7-3.2-7.3-3.7c1.9-5.3,0.6-11.4-3.8-15.4  c-3.2-2.9-7.3-4.2-11.3-3.8c0,0,0,0,0,0c0-3.9-1.8-7.5-4.6-10.1c-5.8-5.5-15-5.2-20.5,0.7l-3.2,3.5l-16.1-13.5  c-1.5-1.2-2.3-2.9-2.5-4.8c-0.1-1.9,0.5-3.7,1.7-5.2l17.8-20.2c3.1-3.6,8.4-4.4,12.5-2.1l2.5,1.4c9.2,5.2,20.4,5.5,29.9,0.8l3.8-1.9  c6-2.9,12.8-2.8,18.6,0.4l-7.6,4.9c-3.4,2.2-5.7,5.7-6.5,9.7c-0.8,4,0.1,8,2.4,11.4c4.2,6,12.4,8.1,18.9,4.8l5.8-2.9  c4.4-2.2,9.7-1.6,13.5,1.6l44.7,38.2c0,0,0,0,0,0l4.2,3.6c1.2,1,1.9,2.4,2,4C198.5,151.1,197.9,152.6,196.9,153.8z M221,103.4  l-26.6,30.2l-41.7-35.7c-3.7-3.2-8.4-4.8-13.1-4.8c-3.1,0-6.2,0.7-9.1,2.2l-5.8,2.9c-3.1,1.6-6.9,0.6-8.9-2.3  c-1.1-1.6-1.5-3.5-1.1-5.4c0.4-1.9,1.5-3.5,3.1-4.6L135,74.6c4.6-3,10.3-3.2,15.1-0.5l10.6,5.9c6.9,3.9,15.5,3.6,22.2-0.6l13.3-8.3  c3-1.9,6.9-1.2,9.1,1.6l16,20.1C223.8,95.9,223.6,100.3,221,103.4z"></path></svg>