<svg fill="#000000" xmlns="http://www.w3.org/2000/svg" xmlns:xlink="http://www.w3.org/1999/xlink" version="1.1" x="0px" y="0px" viewBox="0 0 100 100" style="enable-background:new 0 0 100 100;" xml:space="preserve"><path d="M32.6,21.5h-2.9c-13.4,0-24.1,10.8-24.1,24.1c0,13,11.7,21.8,12.1,22.2c0.7,0.3,1,1,1,1.3v16c0,4.6,3.6,8.1,8.1,8.5  c1,1,2,1.6,3.3,2h0.7h1.3l0,0c1-0.3,2-1,2.6-1.6c4.6,0,8.1-3.9,8.1-8.5v-16c0-0.3,0.7-1,1.3-1.3C44.6,67.8,56,59,56,45.9  C56.7,32.2,45.6,21.5,32.6,21.5z M21.8,61.9c0,0-9.1-7.2-9.1-16.6s7.5-16.9,16.9-16.9h2.9c9.5,0,16.9,7.5,16.9,16.9  c0,9.1-8.1,15.6-9.1,16.3c-0.7,0.3-4.2,2.9-4.2,6.8v4.9H25.7v-4.9C25.7,64.5,21.8,61.9,21.8,61.9z M36.5,80.8V85  c0,0.7-0.7,1.3-1.3,1.3h-7.8c-0.7,0-1.3-0.7-1.3-1.3v-4.2H36.5z"/><path d="M30.9,51.3l4.1,2.2c0.3,0,0.6,0.3,1,0.3c0.3,0,1,0,1.3-0.3c0.6-0.3,1-1.3,1-1.9l-1-4.8l3.5-3.2  c0.6-0.6,0.6-1.3,0.6-2.2c-0.3-0.6-1-1.3-1.6-1.3l-4.8-0.6l-2.2-4.1c-0.3-0.6-1-1-1.9-1l0,0c-1,0-1.6,0.3-1.9,1l-2.2,4.1L22,40.1  c-0.6,0-1.6,0.6-1.6,1.3c-0.3,0.6,0,1.6,0.6,2.2l3.5,3.2l-1,4.8c0,0.6,0.3,1.6,1,1.9c0.6,0.3,1.6,0.6,2.2,0.3L30.9,51.3z"/><path d="M76.8,16.4H66.3c-1.4,0-2.8,1.4-2.8,2.8L63.2,30c0,0.7,0.2,1.6,0.7,2.1c0.5,0.5,1.2,0.9,1.9,0.9c0.7,0,1.4-0.3,2.1-0.7  c0.5-0.5,0.9-1.2,0.9-1.9l0.2-4.4l1.2,1.2c6.3,6.3,6.3,16.4,0,22.6l-5.6,5.6c-7.8,7.8-8.5,20.7-1.4,29.3c-1.9,3.7-1.2,8.2,1.6,11  c3.7,3.7,9.6,3.7,13.2,0c3.7-3.7,3.7-9.6,0-13.2c-2.8-2.8-7.1-3.7-10.8-1.7c-5.1-6.4-4.4-15.5,1.2-21.1L74,54  c8.5-8.5,8.4-22.3,0-30.7l-0.9-0.9h3.5c0.7,0,1.4-0.3,1.9-0.9l0,0c0.5-0.5,0.9-1.2,0.9-1.9c0-0.7-0.3-1.4-0.9-1.9  C78.1,16.7,77.5,16.4,76.8,16.4z M74.1,91.5c-1.4,1.4-3.8,1.4-5.2,0c-1.4-1.4-1.4-3.8,0-5.2c1.4-1.4,3.8-1.4,5.2,0  C75.7,87.8,75.5,90.1,74.1,91.5z"/><path d="M93.9,61.5c0-0.7-0.2-1.5-0.7-2c-0.5-0.5-1.2-0.7-2-0.7c-0.7,0-1.5,0.2-2,0.7L85.8,63l-3.4-3.4  c-0.5-0.5-1.2-0.7-2-0.7c-0.7,0-1.5,0.2-2,0.7c-0.5,0.5-0.7,1.2-0.7,2s0.2,1.5,1,2l3.4,3.2l-3.4,3.2c-0.5,0.5-0.7,1.2-1,2  c0,0.7,0.2,1.5,0.7,2c0.5,0.5,1.2,0.7,2,0.7c0.7,0,1.5-0.2,2-0.7l3.7-3.4l3.4,3.4c0.5,0.5,1.2,0.7,2,0.7l0,0c0.7,0,1.5-0.2,2-0.7  c1-1.2,1-3,0-3.9L90,66.7l3.4-3.2C93.7,63,93.9,62.5,93.9,61.5z"/><path d="M41.2,14.6c0,0.7,0.2,1.5,0.7,2c0.5,0.5,1.2,0.7,2,0.7l0,0c0.7,0,1.5-0.2,2-0.7l3.7-3.4l3.4,3.4  c0.5,0.5,1.2,0.7,2,0.7c0.7,0,1.5-0.2,2-0.7c0.5-0.5,0.7-1.2,0.7-2s-0.2-1.5-1-2l-3.4-3.2l3.4-3.2c1.2-1,1.2-3,0-3.9  c-0.5-0.5-1.2-0.7-2-0.7s-1.5,0.2-2,0.7l-3.4,3.4l-3.4-3.4c-0.5-0.5-1.2-0.7-2-0.7s-1.5,0.2-2,0.7c-0.5,0.5-0.7,1.2-0.7,2  s0.2,1.5,1,2l3.4,3.2l-3.4,3.2C41.4,13.1,41.2,13.8,41.2,14.6z"/></svg>