<svg fill="#000000" xmlns="http://www.w3.org/2000/svg" data-name="SET 1 ICONS copy" viewBox="0 0 100 100" x="0px" y="0px"><title>NP_Iconography</title><g><path d="M81.61,38.19l-5.73-5.53L43.35,66.35,13.61,55.24a2.35,2.35,0,1,1,1.64-4.41l26.85,10L72.49,29.39l-5.73-5.53L86.6,18.17ZM13.25,62.56V80.33H27V67.71L13.25,62.56m-1.5-2.16,16.79,6.27V81.83H11.75V60.4ZM33.15,70V80.33H46.94V72.69l-1.06,1.1-.68.71-.92-.34L33.15,70m-1.5-2.16L44.8,72.74,48.44,69V81.83H31.65v-14ZM66.85,52.07,53.06,66.35v14H66.85V52.07m1.5-3.71V81.83H51.56V65.74L68.35,48.36Zm7.71-5.83L73,45.73V80.33H86.75V52.69L76.06,42.53m0-2.11L88.25,52.05V81.83H71.46V45.13L76,40.42Z"/></g></svg>