<svg fill="#000000" xmlns="http://www.w3.org/2000/svg" xmlns:xlink="http://www.w3.org/1999/xlink" version="1.1" x="0px" y="0px" viewBox="0 0 256 256" style="enable-background:new 0 0 256 256;" xml:space="preserve"><path d="M227,213h-35V95.1c0-2.2-2.2-4.1-4.4-4.1h-18.4c6.7-14,11.7-28.2,14.8-43.2l11.3,17.8c0.8,1.2,2,1.8,3.3,1.8  c0.7,0,1.5-0.2,2.1-0.6c1.8-1.2,2.4-3.6,1.2-5.4l-15.9-24.9c-1.2-1.8-3.6-2.4-5.4-1.2l-24.9,15.9c-1.8,1.2-2.4,3.6-1.2,5.4  c1.2,1.8,3.6,2.4,5.4,1.2l16-10.2c-3.3,15.1-8.5,29.4-15.6,43.4h-12.1c-2.2,0-3.3,1.9-3.3,4.1v21.6c-11,13.7-22.7,25.7-36.1,35.7  c-1.5,0.1-2.9,1.1-3.4,2.4c-22.2,15.8-48,26.2-75.5,30.4c-2.2,0.3-3.7,2.3-3.3,4.5c0.3,1.9,2,3.3,3.9,3.3c0.2,0,0.4,0,0.6,0  c26.8-4.1,52-13.8,74-28.5V190H69.4c-2.2,0-3.4,1.3-3.4,3.5V213H30.1c-2.2,0-3.9,1.8-3.9,4s1.8,4,3.9,4h39.4h39.4h0.1h39.4h39.4H227  c2.2,0,3.9-1.8,3.9-4S229.2,213,227,213z M145,129.3V152h-23.7C129.6,145,138,137.7,145,129.3z M74,213v-16h31v16H74z M113,160h32  v53h-32V160z M153,213v-56.8v-37.4c0-0.6,0-1.2,0-1.9V99h9.8c0,0,0,0,0,0c0,0,0,0,0,0H184v114H153z"/></svg>