<svg fill="#000000" xmlns="http://www.w3.org/2000/svg" xmlns:xlink="http://www.w3.org/1999/xlink" version="1.2" baseProfile="tiny" x="0px" y="0px" viewBox="0 0 100 100" xml:space="preserve"><path d="M12.5,90h75c1.381,0,2.5-1.119,2.5-2.5v-75c0-1.381-1.119-2.5-2.5-2.5h-75c-1.381,0-2.5,1.119-2.5,2.5v75   C10,88.881,11.119,90,12.5,90z M85,85H52.5v-7.5c0-3.446-2.804-6.25-6.25-6.25c-1.377,0-2.708,0.33-3.849,0.953   C42.041,72.4,41.653,72.5,41.25,72.5c-1.379,0-2.5-1.122-2.5-2.5s1.121-2.5,2.5-2.5c0.403,0,0.791,0.1,1.151,0.297   c1.141,0.623,2.472,0.953,3.849,0.953c3.446,0,6.25-2.804,6.25-6.25v-10h10c0.689,0,1.25,0.561,1.25,1.25   c0,0.542-0.118,1.043-0.34,1.451c-0.596,1.089-0.91,2.316-0.91,3.549c0,4.136,3.364,7.5,7.5,7.5s7.5-3.364,7.5-7.5   c0-1.233-0.314-2.46-0.91-3.549c-0.222-0.408-0.34-0.909-0.34-1.451c0-0.689,0.561-1.25,1.25-1.25H85V85z M52.5,15H85v32.5h-7.5   c-3.446,0-6.25,2.804-6.25,6.25c0,1.377,0.329,2.708,0.953,3.848C72.4,57.959,72.5,58.347,72.5,58.75c0,1.378-1.121,2.5-2.5,2.5   s-2.5-1.122-2.5-2.5c0-0.403,0.1-0.791,0.297-1.152c0.624-1.141,0.953-2.471,0.953-3.848c0-3.446-2.804-6.25-6.25-6.25h-10v-10   c0-0.689,0.561-1.25,1.25-1.25c0.542,0,1.043,0.118,1.45,0.34c1.089,0.596,2.316,0.91,3.55,0.91c4.136,0,7.5-3.364,7.5-7.5   s-3.364-7.5-7.5-7.5c-1.233,0-2.461,0.314-3.55,0.91c-0.407,0.223-0.908,0.34-1.45,0.34c-0.689,0-1.25-0.561-1.25-1.25V15z M15,15   h32.5v7.5c0,3.446,2.804,6.25,6.25,6.25c1.377,0,2.708-0.33,3.849-0.953c0.36-0.197,0.748-0.297,1.151-0.297   c1.379,0,2.5,1.122,2.5,2.5s-1.121,2.5-2.5,2.5c-0.403,0-0.791-0.1-1.151-0.297c-1.141-0.623-2.472-0.953-3.849-0.953   c-3.446,0-6.25,2.804-6.25,6.25v10h-10c-0.689,0-1.25-0.561-1.25-1.25c0-0.542,0.118-1.043,0.34-1.451   c0.596-1.089,0.91-2.316,0.91-3.549c0-4.136-3.364-7.5-7.5-7.5s-7.5,3.364-7.5,7.5c0,1.233,0.314,2.46,0.91,3.549   c0.222,0.408,0.34,0.909,0.34,1.451c0,0.689-0.561,1.25-1.25,1.25H15V15z M15,52.5h7.5c3.446,0,6.25-2.804,6.25-6.25   c0-1.377-0.329-2.708-0.953-3.848C27.6,42.041,27.5,41.653,27.5,41.25c0-1.378,1.121-2.5,2.5-2.5s2.5,1.122,2.5,2.5   c0,0.403-0.1,0.791-0.297,1.152c-0.624,1.141-0.953,2.471-0.953,3.848c0,3.446,2.804,6.25,6.25,6.25h10v10   c0,0.689-0.561,1.25-1.25,1.25c-0.542,0-1.043-0.118-1.45-0.34c-1.089-0.596-2.316-0.91-3.55-0.91c-4.136,0-7.5,3.364-7.5,7.5   s3.364,7.5,7.5,7.5c1.233,0,2.461-0.314,3.55-0.91c0.407-0.223,0.908-0.34,1.45-0.34c0.689,0,1.25,0.561,1.25,1.25V85H15V52.5z"/></svg>