<svg xmlns="http://www.w3.org/2000/svg" xmlns:xlink="http://www.w3.org/1999/xlink" version="1.1" x="0px" y="0px" viewBox="0 0 100 100" enable-background="new 0 0 100 100" xml:space="preserve"><path fill="#000000" d="M29.006,41.459c-1.054,0-1.909,0.854-1.909,1.909s0.854,1.909,1.909,1.909c1.054,0,1.909-0.855,1.909-1.909  S30.06,41.459,29.006,41.459z M31.649,24.719c-2.681-0.381-4.673,0.096-5.94,1.414c-1.816,1.889-1.323,4.739-1.302,4.859  c0.09,0.494,0.559,0.822,1.056,0.731c0.493-0.09,0.821-0.563,0.731-1.056c-0.004-0.02-0.338-2.069,0.823-3.276  c0.84-0.873,2.315-1.167,4.376-0.875c1.743,0.247,2.556,1.888,2.59,3.405c0.038,1.709-0.886,3.614-3.035,4.017  c-2.475,0.463-2.885,1.912-2.799,4.599c0.015,0.492,0.418,0.879,0.906,0.879c0.01,0,0.019,0,0.029-0.001  c0.502-0.015,0.894-0.434,0.878-0.935c-0.079-2.496,0.274-2.563,1.319-2.758c3.197-0.598,4.571-3.365,4.517-5.842  C35.748,27.598,34.445,25.116,31.649,24.719z M49.045,54.181c0.227-0.246,0.301-0.596,0.193-0.911  c-1.142-3.33-2.356-7.044-2.602-8.055c1.692-2.993,2.585-6.387,2.585-9.826c0-11.05-8.989-20.04-20.039-20.04  c-11.05,0-20.04,8.989-20.04,20.04c0,11.05,8.989,20.04,20.04,20.04c3.82,0,7.521-1.078,10.735-3.12l8.234,2.135  C48.474,54.526,48.819,54.426,49.045,54.181z M39.988,50.451l-0.015,0.058c-0.228-0.059-0.476-0.035-0.69,0.068l-0.011-0.016  c-2.996,1.996-6.485,3.052-10.09,3.052c-10.049,0-18.224-8.176-18.224-18.224c0-10.049,8.176-18.224,18.224-18.224  c10.049,0,18.223,8.176,18.223,18.224c0,3.196-0.848,6.349-2.493,9.182c-0.241,0.41-0.35,0.596,2.062,7.692L39.988,50.451z   M87.28,66.174c-2.619-3.025-6.357-4.559-11.109-4.559c-0.242,0-0.446,0.121-0.613,0.285l-0.024-0.024  c-0.024,0.024-2.429,2.346-6.467,2.346c-4.002,0-6.444-2.324-6.468-2.347l-0.024,0.024c-0.167-0.163-0.37-0.283-0.611-0.283  c-4.752,0-8.49,1.534-11.11,4.559c-5.532,6.39-4.061,17.083-3.995,17.535c0.064,0.446,0.447,0.777,0.898,0.777h42.619  c0.451,0,0.834-0.332,0.898-0.777C91.341,83.256,92.813,72.564,87.28,66.174z M69.068,66.036c2.005,0,3.645-0.49,4.911-1.061  l-4.911,10.174l-4.911-10.173C65.423,65.547,67.064,66.036,69.068,66.036z M89.562,82.67H48.574  c-0.22-2.504-0.535-10.469,3.655-15.308c2.157-2.491,5.24-3.81,9.171-3.924l6.851,14.193c0.303,0.628,1.332,0.628,1.635,0  l6.851-14.193c3.929,0.114,7.01,1.432,9.166,3.919C90.089,72.185,89.779,80.162,89.562,82.67z M69.068,58.55  c6.636,0,12.034-5.398,12.034-12.034c0-6.636-5.398-12.035-12.034-12.035c-6.636,0-12.034,5.399-12.034,12.035  C57.034,53.152,62.433,58.55,69.068,58.55z M69.068,36.296c5.635,0,10.219,4.585,10.219,10.22s-4.584,10.219-10.219,10.219  c-5.635,0-10.219-4.584-10.219-10.219S63.433,36.296,69.068,36.296z"></path></svg>