<svg xmlns="http://www.w3.org/2000/svg" xmlns:xlink="http://www.w3.org/1999/xlink" version="1.1" id="Layer_1" x="0px" y="0px" width="100px" height="100px" viewBox="0 0 100 100" enable-background="new 0 0 100 100" xml:space="preserve">
<g>
	<path fill="#000000" d="M65.832,37.057h5.51l-2.738,2.739c-1.562,1.562-1.562,4.095,0,5.657c0.781,0.781,1.805,1.171,2.828,1.171   s2.047-0.391,2.828-1.171l9.568-9.567c0,0,0,0,0,0c0.186-0.186,0.352-0.391,0.498-0.611c0.062-0.091,0.104-0.191,0.156-0.286   c0.074-0.133,0.153-0.262,0.212-0.403c0.049-0.118,0.076-0.242,0.113-0.364c0.039-0.128,0.087-0.251,0.114-0.384   c0.04-0.206,0.055-0.414,0.062-0.623C84.986,33.161,85,33.11,85,33.057c0-0.063-0.016-0.123-0.019-0.186   c-0.009-0.198-0.021-0.397-0.06-0.592c-0.029-0.145-0.08-0.28-0.124-0.418c-0.034-0.109-0.058-0.221-0.103-0.328   c-0.065-0.16-0.153-0.306-0.238-0.455c-0.045-0.078-0.078-0.16-0.128-0.234c-0.149-0.224-0.319-0.433-0.509-0.622l-9.561-9.56   c-1.562-1.562-4.094-1.562-5.656,0c-1.562,1.562-1.562,4.095,0,5.657l2.738,2.739h-5.51c-11.781,0-18.357,10.221-24.16,19.238   c-5.151,8.006-10.017,15.567-17.432,15.567h-4.735c-2.209,0-4,1.791-4,4s1.791,4,4,4h4.735c11.781,0,18.357-10.221,24.16-19.238   C53.551,44.618,58.417,37.057,65.832,37.057z"/>
	<path fill="#000000" d="M19.505,37.087h4.735c3.962,0,7.402,2.024,11.154,6.563c0.791,0.957,1.934,1.451,3.085,1.451   c0.897,0,1.8-0.3,2.546-0.917c1.703-1.408,1.942-3.929,0.534-5.632c-3.359-4.063-8.81-9.465-17.32-9.465h-4.735   c-2.209,0-4,1.791-4,4S17.296,37.087,19.505,37.087z"/>
	<path fill="#000000" d="M84.695,69.416c0.044-0.104,0.066-0.215,0.101-0.322c0.044-0.141,0.097-0.277,0.126-0.424   c0.038-0.193,0.05-0.391,0.059-0.587c0.004-0.064,0.02-0.125,0.02-0.19c0-0.053-0.014-0.101-0.016-0.152   c-0.008-0.211-0.021-0.421-0.062-0.628c-0.026-0.132-0.074-0.254-0.113-0.38c-0.037-0.123-0.064-0.249-0.114-0.368   c-0.058-0.141-0.137-0.268-0.21-0.398c-0.053-0.098-0.096-0.198-0.158-0.292c-0.146-0.219-0.312-0.424-0.498-0.61l0,0l-9.568-9.567   c-1.562-1.562-4.094-1.562-5.656,0c-1.562,1.562-1.562,4.095,0,5.656l2.74,2.74h-5.512c-3.975,0-7.428-2.04-11.199-6.616   c-1.404-1.705-3.926-1.948-5.631-0.543c-1.705,1.405-1.948,3.926-0.543,5.631c3.371,4.091,8.84,9.528,17.373,9.528h5.51   l-2.738,2.739c-1.562,1.562-1.562,4.095,0,5.656c0.781,0.781,1.805,1.172,2.828,1.172s2.047-0.391,2.828-1.172l9.558-9.558   c0.191-0.19,0.362-0.4,0.513-0.625c0.047-0.072,0.078-0.15,0.121-0.224C84.539,69.73,84.629,69.58,84.695,69.416z"/>
</g>
</svg>
