<svg fill="#000000" xmlns="http://www.w3.org/2000/svg" xmlns:xlink="http://www.w3.org/1999/xlink" version="1.1" x="0px" y="0px" viewBox="0 0 100 100" enable-background="new 0 0 100 100" xml:space="preserve"><g><path fill="#000000" d="M43.1,93.6c-0.5,0-1-0.4-1-1c-0.1-5.9,5.2-8.1,10.8-10.5c3.6-1.5,7.2-3,10.1-5.6c0.9-0.8,1-2.4,1-3.6   c-0.1-4.1-2.2-8.7-3-9.5c-0.5,0-1.5,0.1-2.6,0.3c-4.6,0.7-13.2,2-16.3-5.8c-3.4-8.7,7.9-13.5,11.6-15c0.3-0.1,0.5-0.2,0.7-0.3   c-0.1-0.5-0.6-1.8-1.6-3.2c-1-1.4,0.2-2.7,1.2-3.8c1.8-2,2.9-3.5,1.5-6c-0.4-0.4-3.3-0.9-5.4-1.2c-5-0.7-11.2-1.6-13.2-5   C32.1,15.6,24.6,9.1,24.6,9.1c-0.4-0.4-0.5-1-0.1-1.4c0.4-0.4,1-0.5,1.4-0.1c0.3,0.3,7.8,6.7,12.7,14.7c1.6,2.6,7.5,3.4,11.8,4.1   c4.1,0.6,6.1,0.9,6.8,2.1c2.2,3.9-0.2,6.6-1.7,8.3c-0.4,0.5-1,1.1-1.1,1.4c0.3,0.3,3,4,1.6,5.6c-0.2,0.3-0.5,0.4-1.6,0.8   c-5.7,2.4-12.9,6.2-10.5,12.4c2.3,5.9,8.3,5.5,14.2,4.6c1.5-0.2,2.7-0.4,3.4-0.3c1.9,0.4,3.7,6.8,3.7,6.8c0.7,2.7,1.6,7.5-0.9,9.7   c-3.1,2.8-7.1,4.5-10.7,6c-5.9,2.5-9.6,4.2-9.5,8.6C44.1,93.1,43.6,93.5,43.1,93.6C43.1,93.6,43.1,93.6,43.1,93.6z"/><path fill="#000000" d="M61.7,44.7c-0.3,0-0.6-0.1-0.8-0.4c-0.3-0.4-0.2-1.1,0.2-1.4l11.1-8.1c0.4-0.3,1.1-0.2,1.4,0.2   c0.3,0.4,0.2,1.1-0.2,1.4l-11.1,8.1C62.1,44.6,61.9,44.7,61.7,44.7z"/><path fill="#000000" d="M63,51.4c-0.4,0-0.8-0.3-1-0.7c-0.2-0.5,0.1-1.1,0.6-1.3l17.4-5.7c0.5-0.2,1.1,0.1,1.3,0.6   c0.2,0.5-0.1,1.1-0.6,1.3l-17.4,5.7C63.2,51.4,63.1,51.4,63,51.4z"/><path fill="#000000" d="M78.5,59.7c-0.1,0-0.1,0-0.2,0L64.7,57c-0.5-0.1-0.9-0.6-0.8-1.2s0.6-0.9,1.2-0.8l13.6,2.7   c0.5,0.1,0.9,0.6,0.8,1.2C79.4,59.4,79,59.7,78.5,59.7z"/></g></svg>