<svg fill="#000000" xmlns="http://www.w3.org/2000/svg" xmlns:xlink="http://www.w3.org/1999/xlink" version="1.1" x="0px" y="0px" viewBox="0 0 100 100" enable-background="new 0 0 100 100" xml:space="preserve"><path d="M73.424,36.117C73.27,35.743,72.904,35.5,72.5,35.5h-4v-4c0-0.404-0.244-0.77-0.617-0.924  c-0.375-0.157-0.805-0.069-1.09,0.217l-7.471,7.471C56.452,36.52,53.096,35.5,49.5,35.5c-10.477,0-19,8.523-19,19s8.523,19,19,19  s19-8.523,19-19c0-3.597-1.017-6.955-2.762-9.824l7.469-7.469C73.493,36.921,73.578,36.491,73.424,36.117z M66.5,36.086l-2,2v-2.172  l2-2V36.086z M61.914,43.5l2-2h2.172l-2,2H61.914z M52.5,54.5c0,1.654-1.346,3-3,3s-3-1.346-3-3s1.346-3,3-3  c0.462,0,0.895,0.113,1.285,0.301l-1.992,1.992c-0.391,0.391-0.391,1.023,0,1.414c0.195,0.195,0.451,0.293,0.707,0.293  s0.512-0.098,0.707-0.293l1.992-1.992C52.387,53.605,52.5,54.038,52.5,54.5z M52.253,50.333c-0.79-0.524-1.735-0.833-2.753-0.833  c-2.757,0-5,2.243-5,5s2.243,5,5,5s5-2.243,5-5c0-1.018-0.309-1.963-0.833-2.753l3.571-3.571C58.65,49.9,59.5,52.103,59.5,54.5  c0,5.514-4.486,10-10,10c-5.514,0-10-4.486-10-10s4.486-10,10-10c2.397,0,4.6,0.85,6.324,2.262L52.253,50.333z M62.5,37.914v2.172  l-2,2v-2.172L62.5,37.914z M49.5,71.5c-9.374,0-17-7.626-17-17s7.626-17,17-17c3.308,0,6.387,0.963,9,2.604v3.981l-1.26,1.26  c-2.092-1.771-4.791-2.846-7.74-2.846c-6.617,0-12,5.383-12,12s5.383,12,12,12c6.617,0,12-5.383,12-12  c0-2.949-1.074-5.649-2.846-7.74l1.26-1.26h3.977c1.645,2.612,2.609,5.691,2.609,9C66.5,63.874,58.874,71.5,49.5,71.5z M68.086,39.5  h-2.172l2-2h2.172L68.086,39.5z"/></svg>