<svg xmlns="http://www.w3.org/2000/svg" xmlns:xlink="http://www.w3.org/1999/xlink" version="1.1" x="0px" y="0px" viewBox="0 0 50 50" enable-background="new 0 0 50 50" xml:space="preserve"><path fill="#000000" d="M41.4,38.6l-6.9-10.3h2.8c0.5,0,0.9-0.3,1.1-0.7c0.2-0.4,0.2-0.9-0.1-1.3L30.6,16h2.6c0.5,0,0.9-0.3,1.1-0.7  c0.2-0.4,0.2-0.9-0.1-1.3L26,1.8c-0.5-0.7-1.6-0.7-2.1,0l-8.2,12.3c-0.3,0.4-0.3,0.9-0.1,1.3c0.2,0.4,0.6,0.7,1.1,0.7h2.6l-7.7,10.3  c-0.3,0.4-0.3,0.9-0.1,1.3c0.2,0.4,0.6,0.7,1.1,0.7h2.8L8.6,38.6c-0.3,0.4-0.3,0.9-0.1,1.3c0.2,0.4,0.6,0.7,1.1,0.7h10.6l-0.6,6.8  c0,0.3,0.1,0.7,0.3,1c0.2,0.3,0.6,0.4,0.9,0.4h8.2c0.4,0,0.7-0.1,0.9-0.4c0.2-0.3,0.4-0.6,0.3-1l-0.6-6.8h10.6  c0.5,0,0.9-0.3,1.1-0.7C41.7,39.5,41.7,39,41.4,38.6z M27.7,46.2h-5.5l0.5-5.7h4.5L27.7,46.2z M12,38.1l6.9-10.3  c0.3-0.4,0.3-0.9,0.1-1.3c-0.2-0.4-0.6-0.7-1.1-0.7h-2.6l7.7-10.3c0.3-0.4,0.3-0.9,0.1-1.3c-0.2-0.4-0.6-0.7-1.1-0.7h-2.8L25,4.7  l5.8,8.8h-2.8c-0.5,0-0.9,0.3-1.1,0.7c-0.2,0.4-0.2,0.9,0.1,1.3l7.7,10.3h-2.6c-0.5,0-0.9,0.3-1.1,0.7c-0.2,0.4-0.2,0.9,0.1,1.3  L38,38.1H12z"></path></svg>